# xmcd
#
# Track frame offsets: 
#        150
#        16763
#        32680
#        52800
#        72413
#        87965
#        100035
#        113400
#        136975
#        157880
#        175838
#        192243
#
# Disc length: 2820 seconds
#
# Revision: 1
# Processed by: cddbd v1.5.1PL0 Copyright (c) Steve Scherf et al.
# Submitted via: ExactAudioCopy v0.95a5
#
DISCID=880b020c
DTITLE=Blue Mountain - Tales Of A Traveler
DYEAR=1999
DGENRE=Rock
TTITLE0=When You're Not Mine
TTITLE1=Poppa
TTITLE2=Comic Book Kid
TTITLE3=Lakeside
TTITLE4=I Don't Wanna Say Goodnight
TTITLE5=Sleepin' In My Shoes
TTITLE6=The One That Got Away
TTITLE7=My Wicked, Wicked Ways
TTITLE8=Room 829
TTITLE9=Heart Of The Hidden Beach
TTITLE10=Death Is A Fisherman
TTITLE11=Just Passing Through
EXTD=
EXTT0=
EXTT1=
EXTT2=
EXTT3=
EXTT4=
EXTT5=
EXTT6=
EXTT7=
EXTT8=
EXTT9=
EXTT10=
EXTT11=
PLAYORDER=
